<svg xmlns="http://www.w3.org/2000/svg" width="758" height="658" viewBox="0 0 758 658" fill="none">
    <path d="M281.967 255.02C317.316 295.017 477.812 33.6695 484.383 3.90316C485.216 0.130022 483.46 1.7008 481.743 3.70004C473.911 12.8176 468.731 25.2972 463.664 35.9466C433.464 99.4285 408.465 165.444 386.171 232.066C353.285 330.344 330.78 433.844 289.076 528.937C266.938 579.417 230.243 634.99 173.903 650.611C101.518 670.681 15.0881 632.722 3.47871 553.567C-4.92068 496.298 30.6259 435.788 67.9718 395.432C100.941 359.806 148.077 324.802 194.876 310.118C216.889 303.211 253.364 298.507 263.685 326.013C274.032 353.585 266.465 388.637 265.717 417.319C265.391 429.814 267.047 434.22 273.029 420.467C282.198 399.387 287.115 376.638 295.271 355.162C295.405 354.81 301.702 339.895 301.924 343.228C302.33 349.315 300.737 355.015 302.127 361.154C304.521 371.728 316.234 352.916 315.737 347.443C315.508 344.929 313.799 337.141 319.037 337.693C320.044 337.799 320.042 342.062 320.561 341.958C321.448 341.781 324.446 332.213 325.131 331.091C331.782 320.198 327.372 328.715 327.823 334.798C328.237 340.386 336.936 334.646 339.503 334.646C348.328 334.646 352.362 327.083 356.921 318.903C361.33 310.992 376.991 261.356 389.827 273.301C395.192 278.293 405.921 289.258 413.949 288.434C420.779 287.734 429.99 274.666 433.703 270.153C439.649 262.925 450.534 250.18 451.528 240.242C452.215 233.37 443.311 251.397 440 257.457C432.056 271.999 422.951 288.793 423.039 305.903C423.107 319.21 436.98 299.817 438.883 297.372C449.885 283.234 460.063 268.295 468.336 252.379C469.927 249.32 473.263 239.512 471.79 242.629C466.866 253.044 462.472 264.223 459.957 275.485C458.785 280.735 455.869 296.337 465.543 295.747C482.091 294.738 501.291 274.931 511.349 263.653C568.241 199.855 592.917 115.157 644.346 47.7279C646.904 44.3753 654.771 35.0838 653.64 39.1458C650.111 51.8152 642.097 64.956 636.729 76.6737C608.32 138.683 582.766 201.742 563.4 267.207C548.881 316.287 537.824 366.382 528.868 416.76C527.871 422.37 525.946 416.557 527.447 414.627C531.033 410.016 530.707 404.101 530.189 398.123C526.176 351.876 499.544 317.045 457.875 296.966C421.555 279.463 381.678 278.239 342.042 278.583C294.088 278.998 246.822 284.019 199.903 293.766C189.508 295.926 179.199 298.356 168.926 301.028C167.545 301.387 160.397 303.781 166.895 300.571C196.568 285.913 229.541 276.551 260.943 266.547C396.382 223.401 534.462 189.376 671.972 153.659C690.511 148.844 709.131 144.364 727.679 139.592C735.508 137.579 747.52 135.851 754.543 131.01C763.073 125.131 733.79 129.863 723.464 130.706" stroke="black" stroke-width="3" stroke-linecap="round"/>
</svg>